<?xml version="1.0" encoding="UTF-8"?>
<svg width="132px" height="130px" viewBox="0 0 132 130" version="1.1" xmlns="http://www.w3.org/2000/svg" xmlns:xlink="http://www.w3.org/1999/xlink">
    <title>编组 3</title>
    <defs>
        <linearGradient x1="48.383633%" y1="54.5655904%" x2="43.423635%" y2="50%" id="linearGradient-1">
            <stop stop-color="#8CBEFA" offset="0%"></stop>
            <stop stop-color="#59A1F3" offset="100%"></stop>
        </linearGradient>
        <linearGradient x1="21.4907023%" y1="25.2064293%" x2="89.1924103%" y2="67.0547241%" id="linearGradient-2">
            <stop stop-color="#79B3F7" offset="0%"></stop>
            <stop stop-color="#59A1F3" offset="100%"></stop>
        </linearGradient>
        <linearGradient x1="70.4118686%" y1="17.6499772%" x2="72.3936539%" y2="62.8765656%" id="linearGradient-3">
            <stop stop-color="#79B3F7" offset="0%"></stop>
            <stop stop-color="#408DE5" offset="100%"></stop>
        </linearGradient>
        <linearGradient x1="21.4907023%" y1="29.5328568%" x2="89.1924103%" y2="64.0787096%" id="linearGradient-4">
            <stop stop-color="#79B3F7" offset="0%"></stop>
            <stop stop-color="#59A1F3" offset="100%"></stop>
        </linearGradient>
        <linearGradient x1="50%" y1="17.9180536%" x2="50%" y2="83.534571%" id="linearGradient-5">
            <stop stop-color="#8CBEFA" offset="0%"></stop>
            <stop stop-color="#59A1F3" offset="100%"></stop>
        </linearGradient>
        <linearGradient x1="57.2933165%" y1="46.3254422%" x2="60.4408703%" y2="50%" id="linearGradient-6">
            <stop stop-color="#408FE9" offset="0%"></stop>
            <stop stop-color="#59A1F3" offset="100%"></stop>
            <stop stop-color="#4190E9" offset="100%"></stop>
        </linearGradient>
        <linearGradient x1="39.5502846%" y1="17.0928721%" x2="64.3654725%" y2="72.6357871%" id="linearGradient-7">
            <stop stop-color="#6CA9F2" offset="0%"></stop>
            <stop stop-color="#3C8DE8" offset="100%"></stop>
        </linearGradient>
        <polygon id="path-8" points="0 0 24.7797834 0 24.7797834 55.7818182 0 55.7818182"></polygon>
        <linearGradient x1="48.3016981%" y1="6.63574347%" x2="58.5843677%" y2="97.3694024%" id="linearGradient-10">
            <stop stop-color="#8CBEFA" offset="0%"></stop>
            <stop stop-color="#59A1F3" offset="100%"></stop>
        </linearGradient>
        <linearGradient x1="44.8324851%" y1="46.7956614%" x2="57.7033575%" y2="55.3142871%" id="linearGradient-11">
            <stop stop-color="#79B3F7" offset="0%"></stop>
            <stop stop-color="#63A4F0" offset="100%"></stop>
        </linearGradient>
    </defs>
    <g id="手机端" stroke="none" stroke-width="1" fill="none" fill-rule="evenodd">
        <g id="视频列表卡片" transform="translate(-104.000000, -330.000000)">
            <g id="编组-3备份-4" transform="translate(30.000000, 274.000000)">
                <g id="煤炭案例3-1" transform="translate(20.000000, 20.000000)">
                    <g id="编组-2" transform="translate(54.000000, 36.000000)">
                        <g id="编组">
                            <path d="M7.27047344,24.3340737 C7.29308002,24.3370375 7.3162815,24.3417794 7.33888807,24.3453359 C7.4679835,24.3648966 7.59767383,24.3880137 7.72855399,24.4158728 C7.77019767,24.424764 7.81243627,24.4342479 7.85407995,24.4437319 C7.99150411,24.4751474 8.12952319,24.5107122 8.26932699,24.5516117 C8.28479464,24.5563537 8.29966739,24.5593175 8.31513504,24.5640594 C8.46921668,24.6102937 8.62508304,24.6636409 8.78213923,24.7205445 C8.82080837,24.7347705 8.86007241,24.7495891 8.89874155,24.7644078 C9.0415199,24.8189405 9.18548807,24.8770297 9.33064606,24.9404535 C9.34968317,24.948752 9.36753047,24.955865 9.38656758,24.9641634 C9.54659831,25.035293 9.70841378,25.1129428 9.87201397,25.1953346 C9.9160373,25.217859 9.96125044,25.2409761 10.0058687,25.2640932 C10.1658994,25.3476705 10.3265251,25.4336188 10.4895303,25.5272727 L52.4187726,1.24955557 C52.3128786,1.18850266 52.2075796,1.12982074 52.1028755,1.07350981 C52.046359,1.04268699 51.9904375,1.01542064 51.934516,0.986376055 C51.8898978,0.963258936 51.8452795,0.93954907 51.8012562,0.917617444 C51.7709158,0.902206032 51.7405754,0.885609125 51.710235,0.870790459 C51.5835192,0.808552061 51.4579932,0.749277397 51.3336571,0.693559212 C51.327708,0.691188225 51.3217589,0.688817239 51.3158098,0.686446252 C51.2967727,0.677555052 51.2777356,0.670442093 51.2592934,0.66214364 C51.1617282,0.620058628 51.0647579,0.577973616 50.9689774,0.539445084 C50.9213846,0.520477191 50.8749816,0.504473032 50.8279838,0.486690632 C50.7887197,0.471871966 50.7500506,0.4570533 50.7113815,0.44282738 C50.6780665,0.430972447 50.6447516,0.416746528 50.6114366,0.405484341 C50.4930496,0.363992076 50.3752574,0.325463544 50.2586551,0.290491492 C50.2538958,0.288713252 50.2491365,0.287527759 50.2443773,0.286342265 C50.2289096,0.281600292 50.213442,0.278043812 50.1979743,0.273894586 C50.0998142,0.24485 50.0016541,0.216990908 49.9046838,0.192688295 C49.8642299,0.182611602 49.824371,0.175498643 49.7833222,0.166014696 C49.7416785,0.15653075 49.6994399,0.147046803 49.6577962,0.138155604 C49.6209118,0.130449897 49.5834325,0.120373204 49.547143,0.113260245 C49.4531472,0.0954778452 49.3609362,0.0812519257 49.2681303,0.0676187528 C49.2455237,0.0640622729 49.2223222,0.0593202997 49.1997157,0.0563565665 C49.1931717,0.0551710732 49.1866277,0.0539855799 49.1800836,0.0528000866 C49.0515831,0.0356104339 48.9236775,0.0225700076 48.7975567,0.0136788079 C48.7826839,0.0124933146 48.769001,0.0130860613 48.7541282,0.0124933146 C48.7065355,0.00952958141 48.6601325,0.00893683476 48.6131346,0.00715859482 C48.5399607,0.00478760823 48.465597,-0.000547111589 48.393018,0 C48.3406659,0 48.2889088,0.000638381705 48.2371516,0.00241662165 C48.0979427,0.00775134147 47.9611135,0.0160497945 47.826069,0.0279047275 C47.7517052,0.0350176872 47.6821008,0.0498363534 47.6089269,0.0587275531 C47.4947042,0.072360726 47.3816713,0.0877721388 47.2704232,0.106740031 C47.2115271,0.116223978 47.1496565,0.120373204 47.0913554,0.131635391 C47.0277,0.14408307 46.9693989,0.167200189 46.9069333,0.181426109 C46.7421433,0.218769148 46.5815177,0.262039653 46.4238666,0.311237625 C46.3655654,0.329612771 46.3019101,0.339689464 46.2442038,0.35984285 C46.1740045,0.384145462 46.1079695,0.414968288 46.0395549,0.441641887 C45.9800639,0.464759006 45.9205729,0.487876125 45.8622717,0.512771485 C45.6570279,0.601090735 45.4565433,0.696522945 45.2643874,0.807366568 L3.33574007,25.0850837 C3.52730103,24.9742401 3.72838054,24.8788079 3.93362441,24.7904886 C3.99133066,24.7655933 4.05082164,24.7430689 4.11031262,24.719359 C4.23524368,24.6707538 4.36493401,24.6298543 4.49521926,24.5889548 C4.65227544,24.5397568 4.813496,24.4964863 4.9776911,24.4591433 C5.09786288,24.4318769 5.21743975,24.4052033 5.34118099,24.3844572 C5.45242912,24.3654893 5.56605689,24.3500779 5.68027957,24.3364447 C5.88611836,24.3121421 6.09255205,24.2884322 6.30850431,24.2801338 C6.43224555,24.2765773 6.55777151,24.2807265 6.68389239,24.2854685 C6.73148517,24.2872467 6.77788814,24.2872467 6.82548092,24.2902105 C6.97242364,24.2991017 7.12055618,24.3133276 7.27047344,24.3340737" id="Fill-1" fill="url(#linearGradient-1)"></path>
                            <path d="M63.3783672,99.266023 L63.3492121,109.338205 C63.3486171,109.607134 63.3254121,109.873121 63.2813819,110.134988 C63.2807869,110.139108 63.2801919,110.143815 63.2795969,110.148523 C63.2367568,110.397444 63.1719017,110.643423 63.0903864,110.886459 C63.0820564,110.909998 63.0749164,110.933536 63.0665864,110.957664 C62.9898312,111.174219 62.8940359,111.387832 62.7863406,111.59968 C62.7429055,111.685007 62.6923304,111.769747 62.6435402,111.854486 C62.5328699,112.048091 62.4198196,112.241108 62.2829693,112.430594 C61.5761074,113.406859 60.69848,114.203053 59.6542522,114.821531 C59.6250972,114.838596 59.5959421,114.855662 59.566787,114.872727 L101.502499,90.7697522 C101.531654,90.7532752 101.560809,90.7362096 101.589964,90.7191441 C102.634192,90.100078 103.51182,89.3038836 104.218086,88.3282072 C104.293057,88.2246372 104.363862,88.1210672 104.430502,88.0169087 C104.486432,87.9292273 104.528677,87.8397805 104.579252,87.752099 C104.627448,87.6673599 104.678023,87.5826209 104.721458,87.4972933 C104.740498,87.4596315 104.766083,87.4231466 104.783933,87.3854848 C104.852953,87.2413106 104.915428,87.0959596 104.970169,86.9494315 C104.982069,86.9182428 104.990994,86.8864657 105.001704,86.8546885 C105.010034,86.8311499 105.017769,86.8076113 105.025504,86.7840726 C105.045734,86.725226 105.067154,86.6663794 105.085004,86.6075328 C105.112969,86.5116129 105.138554,86.4151045 105.160569,86.3185961 C105.180204,86.2344455 105.197459,86.1502948 105.211739,86.0655557 C105.212929,86.0590826 105.214119,86.0526095 105.215309,86.0455479 C105.215904,86.0414286 105.216499,86.0367209 105.217094,86.0326017 C105.227804,85.9678704 105.237919,85.9031392 105.246249,85.8384079 C105.255174,85.7689689 105.262314,85.6989415 105.268264,85.628914 C105.273619,85.5641828 105.277784,85.4982746 105.280759,85.4329549 C105.283139,85.371166 105.284329,85.3087886 105.284924,85.2464112 C105.284924,85.2428804 105.284924,85.2393496 105.284924,85.2358188 L105.314079,75.1636364 L63.3783672,99.266023 Z" id="Fill-3" fill="url(#linearGradient-2)"></path>
                            <path d="M62.9326033,76.0728061 C62.9326033,76.1541137 62.9135191,76.240312 62.8771398,76.3301783 C62.875947,76.3338463 62.8741578,76.3375143 62.8729651,76.340571 C62.8389713,76.4218786 62.7870861,76.5074655 62.7244659,76.5961092 C62.7125383,76.6126152 62.701207,76.6291213 62.688683,76.6462387 C62.6218882,76.7342709 62.5407803,76.8259712 62.4459555,76.9207282 C62.428064,76.938457 62.4083834,76.956797 62.3898956,76.9751371 C62.2855287,77.0753961 62.1710234,77.1781004 62.0368374,77.2856954 C61.4440336,77.7704843 60.8059047,78.3720383 60.1248364,79.1013614 C59.9566566,79.2810939 59.7914588,79.4687739 59.6286465,79.6644012 C59.5737793,79.7298141 59.5212977,79.8013403 59.4670269,79.8691985 C59.3602745,80.0018583 59.2529257,80.1332954 59.1485589,80.2726799 C59.0853424,80.3582668 59.0233186,80.4487444 58.9606985,80.5367767 C58.8682593,80.6657685 58.7746273,80.7929262 58.6839772,80.9268087 C58.6177788,81.024011 58.5539659,81.1273267 58.4889603,81.2275856 C58.4114306,81.3474074 58.3327082,81.4635611 58.2563712,81.5870508 C58.2408653,81.6115042 58.2259558,81.636569 58.2110462,81.6610224 C58.1042938,81.837087 58.0070835,82.0198762 57.9194154,82.2093902 C57.8949637,82.261965 57.8758795,82.3175965 57.8526206,82.3713941 C57.8335363,82.4166329 57.8144521,82.4630944 57.7965606,82.5089445 C57.7733017,82.5676327 57.7464646,82.6232642 57.7249948,82.6825637 C57.6760915,82.8182802 57.6313628,82.956442 57.5908088,83.0976604 C57.577092,83.1471786 57.5657608,83.1979194 57.5532368,83.2480489 C57.5460802,83.2749477 57.5389236,83.3018464 57.5323634,83.3293565 C57.5204357,83.3788747 57.5061226,83.4271702 57.4947913,83.477911 C57.4685505,83.5958987 57.4452916,83.7157204 57.4250146,83.8373762 C57.405334,83.9510846 57.3886353,84.0666269 57.3743221,84.183392 C57.3737257,84.1913393 57.3731294,84.199898 57.3719366,84.2078454 C57.3713402,84.2151814 57.3707438,84.2225174 57.3701474,84.2298535 C57.3588162,84.3264444 57.3480813,84.4242581 57.3403283,84.5239058 C57.3313826,84.6351688 57.3248224,84.7476545 57.3200514,84.8619742 C57.3152803,84.9738486 57.3128948,85.0869456 57.3121841,85.2018766 C57.3121841,85.2086013 57.3121841,85.215326 57.3121841,85.2220507 C57.311702,85.3278117 57.3134911,85.4347954 57.3164731,85.5423904 C57.3200514,85.6548761 57.3248224,85.7685845 57.331979,85.8829042 C57.3391356,85.9960012 57.3480813,86.1103209 57.3588162,86.225252 C57.360009,86.2429807 57.3623945,86.2607094 57.3641836,86.2778268 C57.3653764,86.2894422 57.3671655,86.3016689 57.3683583,86.3126729 C57.3767077,86.3994826 57.3856534,86.4856808 57.3963883,86.5724905 C57.4107014,86.6904782 57.4274001,86.8090772 57.445888,86.9282876 C57.4643758,87.049332 57.4846528,87.1715991 57.5073153,87.2944775 C57.5126828,87.3250443 57.5198394,87.355611 57.5258032,87.3861778 C57.5287851,87.4039065 57.5323634,87.4216352 57.5359417,87.439364 C57.5514476,87.5176149 57.5657608,87.5952545 57.5824595,87.6735054 C57.6098931,87.8037198 57.6397122,87.9345456 57.6719168,88.0659827 C57.7041214,88.2004764 57.7387116,88.3355816 57.7756873,88.471298 C57.7828439,88.4975854 57.7911932,88.5244842 57.7983498,88.5507716 C57.8031209,88.5691117 57.8084883,88.5874517 57.8138557,88.6057918 C57.8400965,88.6993261 57.865741,88.7928604 57.8943673,88.887006 C57.9361141,89.0270018 57.9802463,89.1682203 58.0261678,89.3100501 C58.0726856,89.4512685 58.1209925,89.5937097 58.171685,89.7373735 C58.1770524,89.7526569 58.1830162,89.7679402 58.1883837,89.7832236 C58.3273407,90.1720329 58.4686833,90.5553402 58.6124114,90.9331454 C58.616586,90.9441494 58.6207607,90.9545421 58.6249354,90.9655462 C58.7543503,91.3054486 58.8861507,91.6386264 59.019144,91.9705814 C59.0459811,92.0366057 59.0716256,92.1056866 59.0984628,92.1717108 C59.0990592,92.1741561 59.1002519,92.1766015 59.1014447,92.1790468 C59.1282819,92.245071 59.1563118,92.3092612 59.183149,92.3752854 C59.3077929,92.6791191 59.4330331,92.9817301 59.5606589,93.2782277 C59.5648336,93.2880091 59.5696046,93.2977905 59.5737793,93.3075718 C59.6167188,93.4072195 59.6614475,93.5038105 59.704387,93.6022354 C59.8087539,93.8394336 59.9125243,94.0778543 60.0186804,94.3101618 C60.0401501,94.3566233 60.0610235,94.4030847 60.0824932,94.4489349 C60.2739319,94.8646429 60.4611959,95.2595655 60.6460743,95.6422615 C60.662773,95.6764962 60.6800681,95.7150104 60.6967668,95.7486338 C60.8148505,95.9919453 60.931145,96.2273094 61.0462467,96.4565601 C61.0683129,96.5005763 61.0897826,96.5415357 61.1112524,96.5843292 C61.1881857,96.7365517 61.2651189,96.8887742 61.3408595,97.034272 C61.3832026,97.1155796 61.4237566,97.1913852 61.4655033,97.2702474 C61.5030754,97.3417737 61.5406475,97.4132999 61.5782195,97.4829921 C61.7135983,97.7373076 61.8477843,97.9842871 61.9789883,98.2172059 C62.0630782,98.366983 62.1400115,98.5057562 62.2121737,98.6378046 C62.2354326,98.6812094 62.2569024,98.7209462 62.2795649,98.762517 C62.3266791,98.8499379 62.3714077,98.9343022 62.4125581,99.0131645 C62.4352206,99.055958 62.4572868,99.0981401 62.4775638,99.1384882 C62.5103648,99.2026784 62.5407803,99.2625893 62.5694066,99.3206662 C62.5896836,99.3610143 62.610557,99.4031964 62.6284484,99.4410992 C62.6391833,99.4637186 62.6493218,99.4851154 62.6594603,99.5071234 C62.6892794,99.570091 62.7173094,99.6312245 62.7405683,99.6856333 C62.741761,99.6880787 62.7423574,99.6899127 62.7435502,99.692358 C62.769791,99.7534916 62.7918571,99.8091231 62.8091522,99.8580299 C62.810345,99.8598639 62.8109413,99.8623093 62.8115377,99.8641433 C62.8294292,99.9142728 62.843146,99.9582889 62.8520917,99.9955804 C62.8526881,99.9961917 62.8526881,99.9961917 62.8526881,99.996803 C62.8616338,100.034094 62.8664049,100.065884 62.8664049,100.090337 L104.898819,75.0506534 C104.898819,75.0488194 104.898819,75.0463741 104.898819,75.0433174 C104.898819,75.0408721 104.898819,75.0378154 104.898223,75.0353701 C104.898223,75.0323134 104.898223,75.0292567 104.897626,75.0268114 C104.897626,75.0237547 104.89703,75.0200867 104.896433,75.01703 C104.896433,75.0127507 104.895837,75.0084713 104.894644,75.004192 C104.894048,74.9999126 104.893451,74.9956333 104.892259,74.9907426 C104.891662,74.9858519 104.89047,74.9809612 104.889277,74.9754592 C104.888084,74.9693458 104.886295,74.9626212 104.885102,74.9552851 C104.883313,74.9485604 104.881524,74.9412244 104.879138,74.9338884 C104.876753,74.9247184 104.874367,74.914937 104.871385,74.9051556 C104.867807,74.8947629 104.864229,74.8837589 104.86065,74.8727549 C104.856476,74.8593055 104.851705,74.8458561 104.846934,74.8317954 C104.846337,74.8293501 104.845145,74.8269047 104.843952,74.8244594 C104.843952,74.8232367 104.843355,74.8214027 104.842759,74.82018 C104.837988,74.807342 104.833813,74.7951153 104.828446,74.7816659 C104.820693,74.7621032 104.81294,74.7413178 104.803994,74.7193097 C104.795645,74.6991356 104.786103,74.6771276 104.777157,74.6551195 C104.775368,74.6514515 104.774175,74.6483948 104.772982,74.6453381 C104.77179,74.6428928 104.771193,74.6404474 104.77,74.6380021 C104.755091,74.603156 104.738392,74.5664759 104.721097,74.5279617 C104.712151,74.508399 104.701416,74.4863909 104.691874,74.4662169 C104.682332,74.4454315 104.672194,74.4246461 104.661459,74.402638 C104.653706,74.3861319 104.647146,74.3714599 104.638796,74.3543425 C104.628061,74.3323344 104.613748,74.3048243 104.602417,74.2822049 C104.573791,74.2235167 104.542779,74.1623832 104.509978,74.098193 C104.499243,74.0774076 104.49149,74.0609015 104.480755,74.0401161 C104.47002,74.0199421 104.4569,73.9954887 104.446165,73.9747033 C104.403822,73.8946183 104.358497,73.8096427 104.310786,73.7209991 C104.289316,73.680651 104.269039,73.6427482 104.245781,73.600566 C104.173618,73.4679063 104.096685,73.3285218 104.011402,73.1781333 C103.880795,72.9458259 103.746609,72.6982351 103.61123,72.4445309 C103.573658,72.3742274 103.536086,72.3027011 103.498514,72.2311749 C103.381026,72.0080375 103.262346,71.7787867 103.141877,71.540366 C103.121004,71.4994065 103.100727,71.4608924 103.08045,71.4193216 C102.948053,71.1570587 102.813867,70.8819578 102.677892,70.6007436 C102.49361,70.2192703 102.306346,69.824959 102.114907,69.4098623 C101.987282,69.1317048 101.862041,68.8474338 101.737397,68.5631629 C101.693862,68.4641266 101.649133,68.3675356 101.606193,68.2678879 C101.479164,67.9738356 101.355116,67.67367 101.231069,67.3722817 C101.198864,67.2934194 101.165467,67.2170025 101.133262,67.1381402 C101.110003,67.0800634 101.087341,67.0195412 101.064082,66.9614643 C100.926914,66.6203392 100.791535,66.2773801 100.658542,65.9276963 C100.510043,65.5382757 100.364526,65.1445757 100.220798,64.7441511 C100.078262,64.3443378 99.9548113,63.9518605 99.8468662,63.5667192 C99.8414987,63.5483792 99.8361313,63.5294278 99.8307638,63.511699 C99.726397,63.1338938 99.6393252,62.7640359 99.5689521,62.4009027 C99.5653738,62.3825627 99.5617955,62.364834 99.5582172,62.3464939 C99.4890369,61.9815267 99.4359589,61.6238955 99.4007723,61.2736004 C99.3995796,61.261985 99.3983868,61.2503696 99.397194,61.2387543 C99.3620075,60.8792891 99.344116,60.5271599 99.3447124,60.1823668 C99.3459052,59.8394077 99.3655858,59.5092866 99.4025615,59.1913922 C99.4037543,59.1834449 99.4037543,59.1754975 99.404947,59.1681615 C99.4413263,58.8631052 99.4961935,58.5714982 99.5653738,58.290284 C99.571934,58.2627739 99.5790906,58.2358751 99.5856508,58.208365 C99.6524456,57.9522155 99.7347463,57.7070701 99.8289747,57.4698719 C99.8474625,57.4234105 99.8665468,57.3775603 99.885631,57.3317102 C99.9911906,57.085342 100.107485,56.8469212 100.24346,56.6219498 C100.334707,56.472784 100.428339,56.3327882 100.521374,56.1891244 C100.58638,56.0888654 100.650789,55.9849384 100.716988,55.8871248 C100.807041,55.754465 100.899481,55.6285299 100.990727,55.5007608 C101.05454,55.4121172 101.11716,55.3198056 101.181569,55.2336073 C101.285936,55.0942228 101.393285,54.9621744 101.500037,54.8295146 C101.554308,54.7622678 101.60679,54.6907415 101.661657,54.6253286 C101.824469,54.4297013 101.989667,54.2420214 102.15725,54.0616775 C102.838319,53.3329657 103.477044,52.7314118 104.069848,52.2466229 C104.204034,52.1390278 104.317943,52.0363235 104.42231,51.9360645 C104.440797,51.9177245 104.461074,51.8993844 104.478966,51.8816557 C104.573791,51.7862874 104.654302,51.6951984 104.721097,51.6071661 C104.734217,51.5900487 104.745549,51.5735427 104.757476,51.5570366 C104.777753,51.5276925 104.801609,51.4983484 104.818904,51.470227 C104.846337,51.4262108 104.869596,51.382806 104.889873,51.3400126 C104.895837,51.3271745 104.900012,51.3143365 104.905379,51.3014984 C104.907168,51.2984418 104.908361,51.2947737 104.91015,51.2911057 C104.913728,51.2819357 104.917903,51.2727657 104.921481,51.2635956 C104.928042,51.2452556 104.934005,51.2275269 104.938777,51.2091868 C104.942951,51.1951261 104.946529,51.1810654 104.949511,51.167616 C104.952493,51.1553893 104.954879,51.1437739 104.956668,51.1321586 C104.958457,51.1229885 104.95965,51.1132072 104.960843,51.1040371 C104.962035,51.0954784 104.962632,51.0869197 104.963228,51.078361 C104.963825,51.071025 104.964421,51.063689 104.965017,51.056353 C104.965017,51.0490169 104.965017,51.0416809 104.965614,51.0349562 L104.965614,51.0337336 L62.9326033,76.0728061 Z" id="Fill-5" fill="url(#linearGradient-3)"></path>
                            <path d="M104.95894,42.8857677 C104.953554,42.7154282 104.945773,42.5439017 104.935,42.3717817 C104.930212,42.3011531 104.92303,42.2293375 104.917644,42.1581154 C104.91525,42.1248784 104.912258,42.0916414 104.909864,42.0584045 C104.903879,41.9931176 104.900288,41.9284242 104.893704,41.8625437 C104.877545,41.6939848 104.858393,41.5254258 104.836848,41.3556799 C104.815302,41.1853404 104.790764,41.0150009 104.763832,40.8440679 C104.762635,40.8363522 104.760839,40.8292299 104.759642,40.8215142 C104.758445,40.8126115 104.75665,40.8037087 104.754854,40.7948059 C104.729718,40.6393044 104.703384,40.4832093 104.67346,40.3259272 C104.640542,40.1514331 104.604633,39.9757519 104.565731,39.7994773 C104.547178,39.7157913 104.526231,39.6321054 104.50648,39.5484194 C104.498102,39.5128084 104.490321,39.4777908 104.481942,39.4427733 C104.467578,39.3828281 104.454412,39.3228828 104.439449,39.2629375 C104.394563,39.0819147 104.346085,38.9002984 104.295213,38.7186821 C104.244341,38.5364722 104.190477,38.3536689 104.13362,38.1696785 C104.131825,38.1625563 104.129431,38.1554341 104.127037,38.1483119 C104.071377,37.9690696 104.013323,37.7904209 103.953474,37.6123657 C103.89183,37.4307493 103.82839,37.2503201 103.762556,37.0704843 C103.73682,37.0004492 103.709888,36.9310077 103.683555,36.8609726 C103.670986,36.8283292 103.658418,36.7956857 103.64585,36.7624488 C103.620115,36.6953813 103.595576,36.6277203 103.569243,36.5606528 C103.505204,36.3974356 103.43937,36.2348118 103.371741,36.0733751 C103.305308,35.9143124 103.23708,35.7564368 103.166458,35.5985611 C103.156284,35.5748204 103.144912,35.5516733 103.13414,35.5279326 C103.125761,35.5083465 103.116185,35.4893539 103.107806,35.4697679 C103.055737,35.3546255 103.003668,35.2394831 102.949206,35.1255278 C102.870803,34.9593429 102.790605,34.7937516 102.708014,34.6293472 C102.651755,34.517766 102.593103,34.4073717 102.53505,34.296384 C102.516496,34.2607729 102.498542,34.2245684 102.47939,34.1889573 C102.458443,34.1491917 102.438094,34.1088325 102.417147,34.0684733 C102.271713,33.7984229 102.121492,33.5307465 101.965884,33.2648507 C101.91202,33.1740426 101.858156,33.0832344 101.803095,32.9930198 C101.555319,32.5823057 101.296172,32.179901 101.026253,31.7858054 C101.024457,31.7834313 101.022662,31.7804637 101.021465,31.7780897 C100.828751,31.4973559 100.630051,31.2201833 100.426564,30.9471653 C100.369708,30.8717886 100.311055,30.7975989 100.2536,30.7228157 C100.212903,30.6699927 100.172804,30.6171697 100.132106,30.5649401 C100.077045,30.4943116 100.02378,30.4219024 99.9681198,30.3518674 C99.8256789,30.1732186 99.6814424,29.9957569 99.5342135,29.8206693 C99.4725689,29.7476667 99.4091288,29.6758511 99.3468857,29.6034419 C99.3115747,29.5624892 99.2768622,29.5215365 99.2415512,29.4811774 C99.1906795,29.4230127 99.1416032,29.3636609 99.0901329,29.3054962 C98.9351236,29.1304086 98.7777204,28.9571015 98.6173247,28.7861685 C98.5221645,28.684677 98.4264059,28.5831855 98.3294503,28.4828811 C98.2666087,28.4181877 98.2031686,28.3534943 98.140327,28.2893944 C97.9883102,28.1362669 97.8356949,27.9867006 97.6818826,27.8401018 C97.577745,27.7409844 97.4718121,27.6454281 97.3664776,27.5492782 C97.3383485,27.523757 97.3108179,27.4970487 97.2820903,27.4715275 C97.2563551,27.4483803 97.23062,27.4234526 97.2048849,27.3997119 C97.0426937,27.2554871 96.8793055,27.11423 96.7147204,26.9759404 C96.5752719,26.859611 96.4346264,26.7468427 96.2933824,26.6346679 C96.2778216,26.6227976 96.2628594,26.6103337 96.2478971,26.5984634 C96.2377227,26.5901541 96.2275484,26.5812514 96.2167755,26.5735356 C96.0509934,26.4435553 95.8834158,26.3171361 95.7146412,26.1936845 C95.5470636,26.0714199 95.3776905,25.9521229 95.207719,25.836387 C95.1993401,25.8310454 95.1909612,25.8257037 95.1825823,25.8203621 C95.171211,25.8120528 95.1592411,25.8049306 95.1472713,25.7972149 C94.99705,25.6957234 94.8456316,25.5960125 94.6936148,25.4998627 C94.5194538,25.390062 94.3446943,25.2838223 94.1681393,25.1811438 C94.1268434,25.1568096 94.086146,25.1330689 94.0448501,25.1099217 L51.8398325,0.945454545 L9.65875451,25.25474 L51.8631736,49.4192072 C52.2372308,49.633467 52.6047045,49.8631582 52.9661934,50.1070939 C52.9781632,50.1148096 52.9895345,50.1219318 53.0009059,50.1296475 C53.3623947,50.3741767 53.7173001,50.6335438 54.0662206,50.9077488 C54.0817814,50.9196192 54.0967437,50.9326765 54.111706,50.9445469 C54.4468612,51.2092557 54.77663,51.4882088 55.1010123,51.7808129 C55.1291414,51.8063342 55.1572705,51.8330424 55.1853996,51.8585637 C55.5115774,52.1565094 55.8329673,52.4663255 56.1477738,52.7927601 C56.4619818,53.1174141 56.7648185,53.4509709 57.0592763,53.7898693 C57.0951858,53.830822 57.1304968,53.8723682 57.1658078,53.9133209 C57.4357274,54.2272916 57.6966697,54.547791 57.95043,54.873632 C57.9911275,54.9264551 58.0318249,54.9792781 58.0725223,55.0326947 C58.3382525,55.3799024 58.5968008,55.7336388 58.8445762,56.0950908 C59.1144959,56.4891864 59.3736427,56.8915912 59.6220166,57.3023052 C59.8602162,57.6958073 60.0846505,58.0946509 60.2977135,58.4982428 C60.3168652,58.5344473 60.3348199,58.5700584 60.3539717,58.6062629 C60.5556633,58.9926428 60.7471805,59.3837707 60.9261295,59.7796468 C60.9351068,59.7992329 60.9440842,59.8182255 60.9524631,59.837218 C61.1356015,60.2437774 61.305573,60.656272 61.4647718,61.0723277 C61.4773401,61.1049712 61.4893099,61.1376146 61.5018782,61.1696646 C61.6616754,61.594623 61.8106998,62.0237361 61.9459589,62.4581908 C62.0806194,62.8932391 62.1979238,63.3241327 62.3002658,63.7520588 C62.3086447,63.7870763 62.3170236,63.8226873 62.3254024,63.8577049 C62.423555,64.2767281 62.5073438,64.6927838 62.5737764,65.1046849 C62.5749734,65.1129941 62.5767688,65.1218969 62.5785643,65.1307997 C62.6449969,65.5468554 62.6940732,65.9587564 62.7281872,66.3676899 C62.7311796,66.4009269 62.7335736,66.4347574 62.7359676,66.4685879 C62.7682861,66.8787084 62.7856424,67.2852678 62.7844454,67.6876726 L62.7605057,76.1090909 L104.941584,51.7998055 L104.965614,43.3783872 C104.965614,43.2145764 104.963728,43.0507655 104.95894,42.8857677" id="Fill-7" fill="url(#linearGradient-4)"></path>
                            <path d="M60.2335986,57.2383872 C61.2151977,58.8592921 61.9866667,60.5723141 62.5450294,62.3674147 C63.103392,64.1672392 63.3837639,65.9026999 63.3790614,67.5708444 L63.3551909,75.9493582 C63.3540004,76.2694057 63.0557705,76.658541 62.4610964,77.120307 C61.8693987,77.5891589 61.2318652,78.1696142 60.5526629,78.874073 C59.8728654,79.5785319 59.2383082,80.404042 58.6418484,81.3470603 C58.0489601,82.2959835 57.7489444,83.4385886 57.7453728,84.7860951 C57.7412059,86.1336015 58.0340784,87.6027496 58.6198234,89.1923584 C59.2085448,90.7837387 59.8365539,92.2847734 60.5098035,93.6984151 C61.1836484,95.1126473 61.8158245,96.3296546 62.4033553,97.3388082 C62.9938625,98.3538667 63.289116,98.9567607 63.2885208,99.1474901 L63.2599479,109.254379 C63.2569715,110.346201 62.8998099,111.378384 62.1926299,112.357423 C61.48545,113.337052 60.608023,114.135989 59.56273,114.757189 C58.5180324,115.377798 57.3596382,115.729732 56.0917146,115.806496 C54.8202193,115.880898 53.6255137,115.600414 52.4968831,114.953823 L10.523252,90.9148282 C9.00293409,90.0438502 7.60881331,88.9378556 6.34505652,87.6062925 C5.08129973,86.270596 3.96993189,84.7837331 3.01571515,83.1433418 C2.06090314,81.5035411 1.31979282,79.7946526 0.788217311,78.0101809 C0.256046528,76.2262997 -0.00527670809,74.4707622 0,72.7376634 L0.118539313,31.2448585 C0.122110929,29.9623064 0.380457819,28.7742332 0.890008367,27.6859535 C1.39955891,26.5935403 2.12102534,25.7396866 3.05559819,25.1167158 C3.98659943,24.4907926 5.08725242,24.1583447 6.3551761,24.1116957 C7.62667139,24.0721326 9.01900636,24.4831162 10.5393242,25.3540942 L52.516527,49.3954511 C54.0368448,50.2658386 55.4577527,51.3830525 56.7786554,52.7512262 C58.099558,54.1199904 59.2519994,55.6133488 60.2335986,57.2383872" id="Fill-9" fill="url(#linearGradient-5)"></path>
                            <path d="M89.2090458,126.355813 C89.2078447,126.716146 89.1862251,127.053311 89.1453881,127.369747 C89.144187,127.379502 89.1423854,127.389257 89.1411843,127.399012 C89.0997468,127.706302 89.0396924,127.993472 88.9604206,128.259301 C88.9562168,128.272105 88.952013,128.28369 88.9484097,128.295884 C88.8727412,128.542203 88.7784558,128.767183 88.6703579,128.97753 C88.651741,129.014112 88.6319231,129.048865 88.6121052,129.084228 C88.4962002,129.292746 88.3670832,129.487241 88.2163467,129.658567 C88.1550913,129.728683 88.0902325,129.792701 88.0223711,129.849404 C87.9545096,129.906106 87.884246,129.956101 87.8103791,129.99939 L130.136712,105.027226 C130.283846,104.940648 130.418968,104.826634 130.54268,104.686402 C130.656783,104.556536 130.760677,104.416304 130.854963,104.265708 C130.88499,104.217542 130.910213,104.162668 130.938438,104.112063 C130.958256,104.0767 130.977474,104.041338 130.996091,104.004756 C131.01771,103.962686 131.042933,103.924885 131.063352,103.880986 C131.113197,103.775508 131.158237,103.665761 131.200276,103.551747 C131.2267,103.477973 131.250721,103.401151 131.274142,103.323719 C131.278346,103.311525 131.28255,103.299331 131.286153,103.286527 C131.290357,103.272504 131.295762,103.25909 131.299966,103.245067 C131.327591,103.148125 131.352814,103.048743 131.375634,102.946923 C131.397254,102.8512 131.416471,102.753038 131.433887,102.652437 C131.446499,102.578663 131.456708,102.50306 131.466917,102.426848 C131.468118,102.417092 131.46992,102.407337 131.471121,102.396972 C131.472922,102.382339 131.475925,102.368926 131.477727,102.354293 C131.489738,102.254912 131.499947,102.153091 131.508355,102.049442 C131.516762,101.946403 131.523368,101.840924 131.527572,101.733617 C131.531776,101.625699 131.534779,101.515343 131.534779,101.403158 C131.535379,101.396452 131.535379,101.390355 131.535379,101.383648 L89.2090458,126.355813 Z" id="Fill-11" fill="url(#linearGradient-6)"></path>
                            <polygon id="Fill-13" fill="url(#linearGradient-7)" points="89.714034 82.325873 131.663448 57.6727273 131.537266 102.516437 89.5884477 127.169583"></polygon>
                            <g transform="translate(65.285199, 74.218182)">
                                <mask id="mask-9" fill="white">
                                    <use xlink:href="#path-8"></use>
                                </mask>
                                <g id="Clip-18"></g>
                                <path d="M24.1121497,3.67160101 C24.5589905,4.89606965 24.7839024,6.21961108 24.7797834,7.63866582 L24.7791297,7.83443842 L24.6532507,52.0327729 C24.6490746,53.4512343 24.3179709,54.5214579 23.6676952,55.2464098 C23.0168229,55.9713617 22.0402162,55.9600899 20.7414545,55.2143743 C20.2916308,54.9563104 19.7135417,54.4277244 19.0095735,53.6357352 C18.3062019,52.843746 17.6028303,51.9912453 16.8958792,51.0663681 C16.1925076,50.1480166 15.5314934,49.2498357 14.91224,48.3801307 C14.29239,47.5056798 13.8443561,46.8293744 13.5633654,46.3458754 C12.8301646,45.2139538 11.7181335,43.3458086 10.2296584,40.7479655 C8.73760378,38.1477494 7.23481067,35.3143859 5.71769957,32.2502481 C4.19999188,29.1819575 2.86603182,26.1575674 1.71462623,23.1687724 C0.567396714,20.1865031 -0.0059197513,17.7257008 0,15.7928913 C0.00541532969,13.8565223 0.632424283,12.0061746 1.88107294,10.2341359 C3.13031818,8.46565675 4.63012837,6.88998393 6.38527618,5.50889721 C8.14400348,4.1254375 9.98267293,2.97037915 11.907847,2.04016266 C13.8336176,1.11409893 15.4455854,0.504830866 16.74733,0.219477468 C17.2550223,0.122777668 17.9458656,0.0486213793 18.8234395,0.00709385771 C19.7010134,-0.0379931657 20.4747818,0.131676422 21.153097,0.520848624 C22.6761739,1.39589283 23.6617294,2.44535262 24.1121497,3.67160101" id="Fill-17" fill="url(#linearGradient-10)" mask="url(#mask-9)"></path>
                            </g>
                            <path d="M89.8566832,80.5325914 C89.8596609,80.5490649 89.8626385,80.5655384 89.8656162,80.5826002 C89.9174272,80.8920668 89.9561366,81.2068285 89.9829355,81.5268852 C89.9853176,81.5504188 89.9871042,81.5745407 89.9888908,81.5980743 C90.0144985,81.9263678 90.0281957,82.2599563 90.0270046,82.5994282 L132,58.5016282 C132,58.3592501 131.998123,58.2180486 131.993954,58.0780238 C131.989785,57.9385873 131.983235,57.8009158 131.974302,57.6632444 C131.970729,57.6091171 131.965964,57.5555782 131.961796,57.501451 C131.959413,57.4773291 131.957627,57.4526188 131.95584,57.4284969 C131.951672,57.378488 131.948098,57.3278908 131.943334,57.2784703 C131.932019,57.1572724 131.918322,57.0372511 131.902838,56.9172298 C131.888545,56.8025036 131.871871,56.6889541 131.854005,56.5754045 C131.849241,56.5453992 131.843285,56.5153939 131.837925,56.4853886 C131.835543,56.4683267 131.83197,56.4518532 131.829588,56.4347914 C131.818273,56.3724274 131.808745,56.3100634 131.796834,56.2482877 C131.776586,56.142975 131.755147,56.0388388 131.732517,55.9352911 C131.709887,55.8340967 131.686661,55.734079 131.661649,55.6340612 C131.65212,55.5958192 131.640805,55.5575771 131.630681,55.5187467 C131.627108,55.5040382 131.622939,55.4893297 131.619366,55.4746212 C131.607456,55.4316724 131.596736,55.3887236 131.584826,55.3463632 C131.559218,55.2545822 131.532419,55.1628012 131.503834,55.072197 C131.477035,54.985711 131.449045,54.8998135 131.419864,54.8139159 C131.39247,54.7321367 131.363884,54.6509458 131.334108,54.569755 C131.333512,54.5691666 131.333512,54.5685783 131.333512,54.56799 C131.322197,54.538573 131.311478,54.509156 131.299567,54.4803274 C131.287061,54.4479687 131.273959,54.41561 131.260262,54.3832513 C131.24716,54.3520693 131.234059,54.3208873 131.219766,54.2902937 C131.206069,54.2585233 131.191776,54.2273413 131.176888,54.1961593 C131.165573,54.1726258 131.153662,54.1485038 131.141752,54.1249703 C131.139965,54.1220286 131.138774,54.1190869 131.137583,54.1161452 C131.13401,54.1090851 131.131032,54.102025 131.127459,54.0955533 C131.107807,54.0567229 131.087559,54.0178925 131.066715,53.9790621 C131.034556,53.9196398 131.000611,53.8602175 130.965475,53.8019718 C130.949991,53.7754966 130.932125,53.7496096 130.915451,53.7237227 C130.900562,53.6990124 130.884483,53.6748905 130.868999,53.6501802 C130.84756,53.6178216 130.828503,53.5848745 130.806469,53.5525159 C130.762995,53.4889752 130.71833,53.4266112 130.671879,53.3642472 C130.651036,53.3365953 130.629597,53.3095316 130.608157,53.2818797 C130.603989,53.277173 130.600416,53.2718779 130.596247,53.2671712 C130.589101,53.2577578 130.58255,53.2489327 130.575403,53.2401076 C130.544436,53.2006888 130.512277,53.1612701 130.479523,53.1224397 C130.446769,53.0841976 130.414015,53.0459555 130.38007,53.0077134 C130.344934,52.9682947 130.308606,52.9288759 130.272279,52.8894572 C130.268706,52.8859272 130.264537,52.8818088 130.260964,52.8782787 C130.257986,52.875337 130.255009,52.871807 130.252031,52.8688653 C130.218681,52.8335649 130.184736,52.7982646 130.1496,52.7629642 C130.104935,52.717662 130.059079,52.6729482 130.012033,52.6288228 C129.964986,52.584109 129.916748,52.5399835 129.867915,52.4964464 C129.865532,52.4946813 129.863746,52.492328 129.861364,52.490563 C129.859577,52.4887979 129.857791,52.4870329 129.856004,52.4858563 C129.799429,52.4346707 129.741067,52.3846618 129.680918,52.334653 C129.617792,52.2822908 129.55288,52.2299285 129.48618,52.1781547 C129.470101,52.1652112 129.452235,52.1528561 129.436156,52.1399126 C129.421863,52.1293225 129.406975,52.1187324 129.392682,52.1075539 C129.352186,52.0769603 129.31169,52.0457783 129.270003,52.0151846 C129.191989,51.958704 129.112188,51.9028117 129.030005,51.8469195 C129.004993,51.8298576 128.978194,51.8133841 128.952586,51.7963223 C128.930551,51.7822021 128.907921,51.7674936 128.885887,51.7527852 C128.843604,51.7257215 128.802513,51.6980696 128.759635,51.671006 C128.660181,51.608642 128.558346,51.5468663 128.454128,51.4862673 C128.429116,51.4721472 128.404104,51.4574387 128.379091,51.4433186 C128.348719,51.4256684 128.318347,51.4086065 128.28738,51.392133 C128.246288,51.3703644 128.205197,51.3491842 128.16351,51.3291807 C128.120036,51.3080005 128.076562,51.2874086 128.032493,51.2679934 C127.986638,51.2479898 127.940186,51.2285746 127.893139,51.2097477 C127.88242,51.2056294 127.871105,51.201511 127.860385,51.1973926 C127.855026,51.1956276 127.849666,51.1938626 127.844306,51.1915092 C127.810956,51.1785658 127.777607,51.1662106 127.743662,51.1544438 C127.689468,51.1350286 127.634084,51.1173784 127.5787,51.1009049 C127.518551,51.0832547 127.457807,51.0667812 127.396468,51.0514844 C127.367883,51.0444243 127.338106,51.0385409 127.308925,51.0320692 C127.297015,51.0291275 127.284508,51.0267741 127.272598,51.0238324 C127.244608,51.0179491 127.217809,51.0114773 127.189819,51.0061823 C127.111209,50.9908854 127.031409,50.977942 126.951012,50.9673518 C126.871211,50.9561734 126.790219,50.9491133 126.709227,50.9426416 C126.700294,50.9420532 126.691957,50.9408766 126.683024,50.9402882 C126.677069,50.9396999 126.671113,50.9385232 126.665158,50.9379349 C126.54903,50.9302865 126.431115,50.9261681 126.311414,50.926701 C126.226253,50.926701 126.140497,50.9291098 126.053549,50.9338165 C125.854643,50.9432299 125.668837,50.9544084 125.488988,50.9667635 C125.434199,50.9708819 125.382388,50.9750003 125.329386,50.9791186 C125.259709,50.9844137 125.186459,50.9891204 125.119759,50.9950038 C125.084623,50.9985338 125.056038,51.0026522 125.021497,51.0055939 C124.882739,51.0191257 124.752318,51.0332459 124.627257,51.0485427 C124.570681,51.0556028 124.510533,51.0620745 124.45634,51.0691346 C124.284827,51.0920798 124.124034,51.1167901 123.981107,51.1438537 C123.686916,51.2079827 123.371881,51.2938803 123.045531,51.3909563 C122.946078,51.4203733 122.841264,51.4556737 122.738833,51.4880324 C122.604244,51.5309811 122.475609,51.5674582 122.33566,51.615702 C122.200475,51.6621809 122.057548,51.7168964 121.917003,51.7686703 C121.853877,51.7916156 121.792537,51.8133841 121.72822,51.8375061 C121.376858,51.9704708 121.010012,52.1187324 120.629469,52.2817024 C120.550263,52.3152378 120.468676,52.3511265 120.388279,52.3864269 C119.98987,52.559987 119.580741,52.7441373 119.150769,52.9500562 C118.512957,53.2559927 117.884079,53.5866396 117.265324,53.942585 L75.2924188,78.0397967 C75.9117692,77.6844396 76.5400526,77.3532044 77.1778645,77.0472678 C77.6084322,76.8419373 78.0169653,76.657787 78.4159699,76.4836385 C78.4963664,76.4483382 78.5773584,76.4124494 78.6565638,76.3789141 C79.0377025,76.2165324 79.4045486,76.0676825 79.7559108,75.9347177 C79.820228,75.9105958 79.8815675,75.8894156 79.9446936,75.865882 C80.2293566,75.7611575 80.500918,75.6699649 80.7659285,75.5858324 C80.8683596,75.5528853 80.9731727,75.5181733 81.0732217,75.488168 C81.3989762,75.391092 81.7140112,75.3051944 82.0087982,75.2410654 C82.1511297,75.2145901 82.3125181,75.1898798 82.4840306,75.1663463 C82.5376282,75.1592862 82.5971811,75.1528144 82.6537564,75.1457544 C82.7794131,75.1304575 82.9104295,75.1163374 83.0503789,75.1028056 C83.1486413,75.0939805 83.2492857,75.0851554 83.3546944,75.0769186 C83.408292,75.0728003 83.4606986,75.0680935 83.5166784,75.0645635 C83.6959327,75.05162 83.8823333,75.0404416 84.0812401,75.0310282 C84.2968217,75.0198497 84.506448,75.0222031 84.7101191,75.0374999 C84.719052,75.0380882 84.7273894,75.0392649 84.7363224,75.0398532 C84.9298694,75.0551501 85.1174611,75.0822137 85.2996931,75.1216324 C85.3121992,75.1239858 85.3241098,75.1269275 85.3360204,75.1292809 C85.5200389,75.1704646 85.6986977,75.2234152 85.8714012,75.2887209 C85.876761,75.2910742 85.8821207,75.2928393 85.8874805,75.2946043 C86.0661393,75.36344 86.2394383,75.4452192 86.4061865,75.5405302 C86.5830587,75.6411363 86.750998,75.744684 86.9129819,75.8505852 C86.935612,75.8647053 86.9576466,75.8794138 86.9796812,75.8941223 C87.1333278,75.9953167 87.279828,76.0988645 87.4197774,76.2047656 C87.4340701,76.215944 87.4489583,76.2265341 87.4638465,76.2377126 C87.6127289,76.3518505 87.7550604,76.46893 87.8890545,76.5877746 C87.890841,76.5895396 87.8926276,76.5913047 87.8944142,76.5930697 C88.0307904,76.714856 88.1588292,76.839584 88.2797217,76.966077 C88.2821038,76.969607 88.2850814,76.9725487 88.2880591,76.9754904 C88.4077605,77.1025717 88.51972,77.2320064 88.6239376,77.3643828 C88.6275108,77.3690896 88.6316795,77.3743846 88.6358482,77.3796797 C88.7293463,77.5002893 88.815698,77.6232523 88.89669,77.7479802 C88.9121738,77.7721022 88.9276575,77.7962241 88.9431413,77.8209343 C89.0235378,77.9497807 89.0985745,78.0803921 89.1652737,78.2139452 C89.1664648,78.2162985 89.1676559,78.2192402 89.1688469,78.2215936 C89.240906,78.3669135 89.3046276,78.5145867 89.3606073,78.6652016 C89.4695892,78.9617248 89.5642784,79.2641313 89.6464614,79.5724212 C89.6506301,79.5871297 89.6542033,79.6012499 89.658372,79.6159583 C89.7369819,79.9160115 89.8030856,80.2213597 89.8566832,80.5325914" id="Fill-19" fill="url(#linearGradient-11)"></path>
                        </g>
                        <g id="编组" transform="translate(17.155235, 14.654545)"></g>
                    </g>
                </g>
            </g>
        </g>
    </g>
</svg>