<?xml version="1.0" encoding="UTF-8"?>
<svg width="98px" height="49px" viewBox="0 0 98 49" version="1.1" xmlns="http://www.w3.org/2000/svg" xmlns:xlink="http://www.w3.org/1999/xlink">
    <title>快开式压滤机_2D_绿</title>
    <defs>
        <linearGradient x1="50%" y1="111.420822%" x2="50%" y2="3.48374804%" id="linearGradient-1">
            <stop stop-color="#B0B0B0" offset="0%"></stop>
            <stop stop-color="#FFFFFF" offset="100%"></stop>
        </linearGradient>
        <linearGradient x1="50%" y1="111.420822%" x2="50%" y2="3.48374804%" id="linearGradient-2">
            <stop stop-color="#B0B0B0" offset="0%"></stop>
            <stop stop-color="#FFFFFF" offset="100%"></stop>
        </linearGradient>
    </defs>
    <g id="页面-1" stroke="none" stroke-width="1" fill="none" fill-rule="evenodd">
        <g id="老石旦看板" transform="translate(-70.000000, -3484.000000)">
            <g id="编组-35" transform="translate(24.000000, 320.000000)">
                <g id="编组-33" transform="translate(1.000000, 1611.000000)">
                    <g id="编组-29" transform="translate(24.000000, 1447.000000)">
                        <g id="编组-20备份" transform="translate(0.000000, 60.000000)">
                            <g id="编组-11" transform="translate(20.000000, 20.000000)">
                                <g id="快开式压滤机_2D_绿" transform="translate(1.000000, 26.000000)">
                                    <polygon id="矩形" stroke="#010101" stroke-width="0.5" fill="#17896E" points="66.6345556 10.3607778 66.6345556 26.5144444 15.5384444 26.5144444 15.5384444 10.3607778"></polygon>
                                    <rect id="矩形-2" stroke="#010101" stroke-width="0.5" fill="url(#linearGradient-1)" x="64.1736667" y="8.16666667" width="2.72766667" height="19.8885556"></rect>
                                    <rect id="矩形-3" fill="#17896E" fill-rule="nonzero" x="64.8868889" y="13.6056667" width="1.30122222" height="5.488"></rect>
                                    <rect id="矩形-4" fill="#17896E" fill-rule="nonzero" x="64.8868889" y="23.9283333" width="1.30122222" height="1.75855556"></rect>
                                    <rect id="矩形-5" stroke="#010101" stroke-width="0.5" fill="url(#linearGradient-1)" x="60.0522222" y="8.16666667" width="2.72766667" height="19.8885556"></rect>
                                    <rect id="矩形-6" fill="#17896E" fill-rule="nonzero" x="60.7654444" y="13.6056667" width="1.30122222" height="5.488"></rect>
                                    <rect id="矩形-7" fill="#17896E" fill-rule="nonzero" x="60.7654444" y="23.9283333" width="1.30122222" height="1.75855556"></rect>
                                    <rect id="矩形-8" stroke="#010101" stroke-width="0.5" fill="url(#linearGradient-1)" x="55.9362222" y="8.16666667" width="2.72766667" height="19.8885556"></rect>
                                    <rect id="矩形-9" fill="#17896E" fill-rule="nonzero" x="56.6494444" y="13.6056667" width="1.30122222" height="5.488"></rect>
                                    <rect id="矩形-10" fill="#17896E" fill-rule="nonzero" x="56.6494444" y="23.9283333" width="1.30122222" height="1.75855556"></rect>
                                    <rect id="矩形-11" stroke="#010101" stroke-width="0.5" fill="url(#linearGradient-1)" x="51.8147778" y="8.16666667" width="2.72766667" height="19.8885556"></rect>
                                    <rect id="矩形-12" fill="#17896E" fill-rule="nonzero" x="52.528" y="13.6056667" width="1.30122222" height="5.488"></rect>
                                    <rect id="矩形-13" fill="#17896E" fill-rule="nonzero" x="52.528" y="23.9283333" width="1.30122222" height="1.75855556"></rect>
                                    <rect id="矩形-14" stroke="#010101" stroke-width="0.5" fill="url(#linearGradient-1)" x="47.6987778" y="8.16666667" width="2.72766667" height="19.8885556"></rect>
                                    <rect id="矩形-15" fill="#17896E" fill-rule="nonzero" x="48.412" y="13.6056667" width="1.30122222" height="5.488"></rect>
                                    <rect id="矩形-16" fill="#17896E" fill-rule="nonzero" x="48.412" y="23.9283333" width="1.30122222" height="1.75855556"></rect>
                                    <rect id="矩形-17" stroke="#010101" stroke-width="0.5" fill="url(#linearGradient-1)" x="43.5773333" y="8.16666667" width="2.72766667" height="19.8885556"></rect>
                                    <rect id="矩形-18" fill="#17896E" fill-rule="nonzero" x="44.2905556" y="13.6056667" width="1.30122222" height="5.488"></rect>
                                    <rect id="矩形-19" fill="#17896E" fill-rule="nonzero" x="44.2905556" y="23.9283333" width="1.30122222" height="1.75855556"></rect>
                                    <rect id="矩形-20" stroke="#010101" stroke-width="0.5" fill="url(#linearGradient-1)" x="39.4613333" y="8.16666667" width="2.72766667" height="19.8885556"></rect>
                                    <rect id="矩形-21" fill="#17896E" fill-rule="nonzero" x="40.1745556" y="13.6056667" width="1.30122222" height="5.488"></rect>
                                    <rect id="矩形-22" fill="#17896E" fill-rule="nonzero" x="40.1745556" y="23.9283333" width="1.30122222" height="1.75855556"></rect>
                                    <rect id="矩形-23" stroke="#010101" stroke-width="0.5" fill="url(#linearGradient-1)" x="35.3398889" y="8.16666667" width="2.72766667" height="19.8885556"></rect>
                                    <rect id="矩形-24" fill="#17896E" fill-rule="nonzero" x="36.0531111" y="13.6056667" width="1.30122222" height="5.488"></rect>
                                    <rect id="矩形-25" fill="#17896E" fill-rule="nonzero" x="36.0531111" y="23.9283333" width="1.30122222" height="1.75855556"></rect>
                                    <rect id="矩形-26" stroke="#010101" stroke-width="0.5" fill="url(#linearGradient-1)" x="31.2238889" y="8.16666667" width="2.72766667" height="19.8885556"></rect>
                                    <rect id="矩形-27" fill="#17896E" fill-rule="nonzero" x="31.9371111" y="13.6056667" width="1.30122222" height="5.488"></rect>
                                    <rect id="矩形-28" fill="#17896E" fill-rule="nonzero" x="31.9371111" y="23.9283333" width="1.30122222" height="1.75855556"></rect>
                                    <rect id="矩形-29" stroke="#010101" stroke-width="0.5" fill="url(#linearGradient-1)" x="27.1024444" y="8.16666667" width="2.72766667" height="19.8885556"></rect>
                                    <rect id="矩形-30" fill="#17896E" fill-rule="nonzero" x="27.8156667" y="13.6056667" width="1.30122222" height="5.488"></rect>
                                    <rect id="矩形-31" fill="#17896E" fill-rule="nonzero" x="27.8156667" y="23.9283333" width="1.30122222" height="1.75855556"></rect>
                                    <rect id="矩形-32" stroke="#010101" stroke-width="0.5" fill="url(#linearGradient-1)" x="22.9864444" y="8.16666667" width="2.72766667" height="19.8885556"></rect>
                                    <rect id="矩形-33" fill="#17896E" fill-rule="nonzero" x="23.6996667" y="13.6056667" width="1.30122222" height="5.488"></rect>
                                    <rect id="矩形-34" fill="#17896E" fill-rule="nonzero" x="23.6996667" y="23.9283333" width="1.30122222" height="1.75855556"></rect>
                                    <rect id="矩形-35" stroke="#010101" stroke-width="0.5" fill="url(#linearGradient-1)" x="18.865" y="8.16666667" width="2.72766667" height="19.8885556"></rect>
                                    <rect id="矩形-36" fill="#17896E" fill-rule="nonzero" x="19.5782222" y="13.6056667" width="1.30122222" height="5.488"></rect>
                                    <rect id="矩形-37" fill="#17896E" fill-rule="nonzero" x="19.5782222" y="23.9283333" width="1.30122222" height="1.75855556"></rect>
                                    <polygon id="路径" stroke="#010101" stroke-width="0.5" fill="url(#linearGradient-2)" points="17.4766667 8.16666667 17.4766667 28.0497778 13.1592222 28.0497778 13.1592222 13.0122222 15.4785556 8.16666667"></polygon>
                                    <rect id="矩形-36备份" fill="#17896E" fill-rule="nonzero" x="14.6673333" y="13.6056667" width="1.30122222" height="5.488"></rect>
                                    <rect id="矩形-37备份" fill="#17896E" fill-rule="nonzero" x="14.6673333" y="23.9283333" width="1.30122222" height="1.75855556"></rect>
                                    <path d="M66.1122552,18.6260914 L66.1122552,21.2056929 L13.9358839,21.2056929 L13.9358839,18.6260914 L66.1122552,18.6260914 M66.64,18.0231961 L13.4257306,18.0231961 L13.4257306,21.8085882 L66.64,21.8085882 L66.64,18.0231961 Z" id="形状" fill="#FFFFFF" fill-rule="nonzero"></path>
                                    <path d="M72.3675556,13.8288889 C77.8446667,13.8288889 83.6375556,18.1517778 83.6375556,23.7051111 C83.6375556,29.2584444 77.9807778,33.712 72.5363333,33.8045556 L68.6054444,33.8045556 L68.6054444,39.9513333 L72.2913333,39.9513333 L72.2913333,40.8333333 L63.1882222,40.8333333 L63.1882222,39.9513333 L66.6563333,39.9513333 L66.6563333,33.8045556 L7.03966667,33.8045556 L7.03966667,39.9513333 L10.7255556,39.9513333 L10.7255556,40.8333333 L1.62244444,40.8333333 L1.62244444,39.9513333 L5.09055556,39.9513333 L5.09055556,16.464 L69.4711111,16.464 L69.4711111,13.8288889 L72.3675556,13.8288889 Z M70.7723333,15.1355556 L70.7723333,17.7761111 L7.03966667,17.7761111 L7.03966667,32.4761111 L72.373,32.4761111 C77.1368889,32.4761111 82.3417778,28.5234444 82.3417778,23.6942222 C82.3417778,18.865 77.1423333,15.1355556 72.373,15.1355556 C71.8666667,15.1355556 71.4038889,15.1355556 70.9084444,15.1355556 L70.7723333,15.1355556 Z" id="形状结合" stroke="#010101" stroke-width="0.5" fill="#52DDAB" fill-rule="nonzero"></path>
                                    <rect id="矩形-38" stroke="#010101" stroke-width="0.5" fill="#2FB790" x="11.9668889" y="29.0243333" width="57.1394444" height="2.65688889"></rect>
                                    <path d="M76.6251111,18.6581111 L76.6251111,20.1934444 L93.541,20.1934444 C93.891328,20.1905127 94.2281595,20.3283845 94.4758875,20.5761125 C94.7236155,20.8238405 94.8614873,21.160672 94.8585556,21.511 L94.8585556,23.2695556 L96.3775556,23.2695556 L96.3775556,18.6635556 L76.6251111,18.6581111 Z" id="路径-2" stroke="#010101" stroke-width="0.5" fill="#2FB790"></path>
                                    <path d="M75.3293333,21.0754444 L92.7515556,21.0754444 C93.0807786,21.0768852 93.3959448,21.209052 93.6277196,21.4428689 C93.8594945,21.6766858 93.9888916,21.9929992 93.9874565,22.3222222 L93.9874565,25.9046667 L75.3293333,25.9046667 L75.3293333,21.0754444 Z" id="路径-3" stroke="#010101" stroke-width="0.5" fill="#2FB790"></path>
                                    <rect id="矩形-39" stroke="#010101" stroke-width="0.5" fill="#2FB790" x="11.9668889" y="18.5383333" width="64.7235556" height="2.65688889"></rect>
                                </g>
                            </g>
                        </g>
                    </g>
                </g>
            </g>
        </g>
    </g>
</svg>