<?xml version="1.0" encoding="UTF-8"?>
<svg width="90px" height="91px" viewBox="0 0 90 91" version="1.1" xmlns="http://www.w3.org/2000/svg" xmlns:xlink="http://www.w3.org/1999/xlink">
    <title>浓缩机_2D_绿</title>
    <defs>
        <linearGradient x1="100%" y1="56.5119995%" x2="5.44654105%" y2="56.5119995%" id="linearGradient-1">
            <stop stop-color="#55DBA8" offset="0%"></stop>
            <stop stop-color="#A5ECD1" offset="16.1168447%"></stop>
            <stop stop-color="#197D50" offset="100%"></stop>
        </linearGradient>
        <linearGradient x1="100%" y1="56.5119995%" x2="5.44654105%" y2="56.5119995%" id="linearGradient-2">
            <stop stop-color="#55DBA8" offset="0%"></stop>
            <stop stop-color="#A5ECD1" offset="16.1168447%"></stop>
            <stop stop-color="#197D50" offset="100%"></stop>
        </linearGradient>
        <linearGradient x1="100%" y1="56.5119995%" x2="5.44654105%" y2="56.5119995%" id="linearGradient-3">
            <stop stop-color="#55DBA8" offset="0%"></stop>
            <stop stop-color="#A5ECD1" offset="16.1168447%"></stop>
            <stop stop-color="#197D50" offset="100%"></stop>
        </linearGradient>
        <linearGradient x1="0%" y1="50%" x2="100%" y2="50%" id="linearGradient-4">
            <stop stop-color="#B0B0B0" offset="0%"></stop>
            <stop stop-color="#FFFFFF" offset="75.0285648%"></stop>
            <stop stop-color="#E3E3E3" offset="100%"></stop>
        </linearGradient>
    </defs>
    <g id="页面-1" stroke="none" stroke-width="1" fill="none" fill-rule="evenodd">
        <g id="老石旦看板" transform="translate(-74.000000, -3949.000000)">
            <g id="编组-35" transform="translate(24.000000, 320.000000)">
                <g id="编组-34" transform="translate(1.000000, 3302.000000)">
                    <g id="编组-20" transform="translate(24.000000, 302.000000)">
                        <g id="编组-11" transform="translate(20.000000, 20.000000)">
                            <g id="浓缩机_2D_绿" transform="translate(5.000000, 5.444444)">
                                <polygon id="矩形-203" stroke="#010101" stroke-width="0.5" fill="url(#linearGradient-1)" points="1 42.0439445 89 42.0439445 89 56.4985551 1 56.4985551"></polygon>
                                <path d="M89.4356287,56.4985551 L45.0286879,62.5985551 L0.564371264,56.4985551 L89.4356287,56.4985551 Z" id="形状结合" stroke="#010101" stroke-width="0.5" fill="url(#linearGradient-2)"></path>
                                <rect id="矩形备份-2" stroke="#010101" stroke-width="0.5" fill="url(#linearGradient-3)" x="40.1356344" y="62.026004" width="9.72873124" height="2.3"></rect>
                                <rect id="矩形" stroke="#010101" stroke-width="0.5" fill="#2FB790" x="38.4057994" y="28.6559638" width="13.1884013" height="12.7"></rect>
                                <rect id="矩形" stroke="#010101" stroke-width="0.5" fill="#52DDAB" x="35.53" y="19.5713249" width="18.94" height="8.95899068"></rect>
                                <g id="编组" transform="translate(0.564371, 30.261396)" fill="#88909A" fill-rule="nonzero">
                                    <path d="M88.7934196,0 L88.7934196,9.87930095 L0,9.87930095 L0,0 L88.7934196,0 Z M5.84842211,5.71891363 L0.998,5.719 L0.998552189,8.87830095 L5.848,8.878 L5.84842211,5.71891363 Z M11.6914221,5.71891363 L6.86842211,5.71891363 L6.868,8.878 L11.691,8.878 L11.6914221,5.71891363 Z M17.5334221,5.71891363 L12.7104221,5.71891363 L12.711,8.878 L17.533,8.878 L17.5334221,5.71891363 Z M23.3764221,5.71891363 L18.5534221,5.71891363 L18.553,8.878 L23.376,8.878 L23.3764221,5.71891363 Z M29.2184221,5.71891363 L24.3954221,5.71891363 L24.396,8.878 L29.219,8.878 L29.2184221,5.71891363 Z M35.0614221,5.71891363 L30.2384221,5.71891363 L30.238,8.878 L35.061,8.878 L35.0614221,5.71891363 Z M40.9034221,5.71891363 L36.0804221,5.71891363 L36.081,8.878 L40.904,8.878 L40.9034221,5.71891363 Z M46.7464221,5.71891363 L41.9234221,5.71891363 L41.923,8.878 L46.746,8.878 L46.7464221,5.71891363 Z M52.5884221,5.71891363 L47.7654221,5.71891363 L47.766,8.878 L52.589,8.878 L52.5884221,5.71891363 Z M58.4314221,5.71891363 L53.6084221,5.71891363 L53.608,8.878 L58.431,8.878 L58.4314221,5.71891363 Z M64.2734221,5.71891363 L59.4514221,5.71891363 L59.451,8.878 L64.274,8.878 L64.2734221,5.71891363 Z M70.1164221,5.71891363 L65.2934221,5.71891363 L65.293,8.878 L70.116,8.878 L70.1164221,5.71891363 Z M75.9584221,5.71891363 L71.1364221,5.71891363 L71.136,8.878 L75.959,8.878 L75.9584221,5.71891363 Z M81.8014221,5.71891363 L76.9784221,5.71891363 L76.979,8.878 L81.801,8.878 L81.8014221,5.71891363 Z M82.8214221,5.71891363 L82.821,8.878 L87.7947055,8.87830095 L87.794,5.719 L82.8214221,5.71891363 Z M5.848,0.98 L0.998552189,0.980476191 L0.998,4.719 L5.84842211,4.71891363 L5.848,0.98 Z M87.7947055,0.980476191 L82.821,0.98 L82.8214221,4.71891363 L87.794,4.719 L87.7947055,0.980476191 Z M81.801,0.98 L76.979,0.98 L76.9784221,4.71891363 L81.8014221,4.71891363 L81.801,0.98 Z M75.959,0.98 L71.136,0.98 L71.1364221,4.71891363 L75.9584221,4.71891363 L75.959,0.98 Z M70.116,0.98 L65.293,0.98 L65.2934221,4.71891363 L70.1164221,4.71891363 L70.116,0.98 Z M64.274,0.98 L59.451,0.98 L59.4514221,4.71891363 L64.2734221,4.71891363 L64.274,0.98 Z M58.431,0.98 L53.608,0.98 L53.6084221,4.71891363 L58.4314221,4.71891363 L58.431,0.98 Z M52.589,0.98 L47.766,0.98 L47.7654221,4.71891363 L52.5884221,4.71891363 L52.589,0.98 Z M46.746,0.98 L41.923,0.98 L41.9234221,4.71891363 L46.7464221,4.71891363 L46.746,0.98 Z M40.904,0.98 L36.081,0.98 L36.0804221,4.71891363 L40.9034221,4.71891363 L40.904,0.98 Z M35.061,0.98 L30.238,0.98 L30.2384221,4.71891363 L35.0614221,4.71891363 L35.061,0.98 Z M29.219,0.98 L24.396,0.98 L24.3954221,4.71891363 L29.2184221,4.71891363 L29.219,0.98 Z M23.376,0.98 L18.553,0.98 L18.5534221,4.71891363 L23.3764221,4.71891363 L23.376,0.98 Z M17.533,0.98 L12.711,0.98 L12.7104221,4.71891363 L17.5334221,4.71891363 L17.533,0.98 Z M11.691,0.98 L6.868,0.98 L6.86842211,4.71891363 L11.6914221,4.71891363 L11.691,0.98 Z" id="形状结合"></path>
                                </g>
                                <g id="编组" transform="translate(1.000000, 39.743944)" fill="url(#linearGradient-4)" fill-rule="nonzero" stroke="#010101" stroke-width="0.5">
                                    <rect id="矩形" x="0" y="0" width="87.9221622" height="2.3"></rect>
                                </g>
                            </g>
                        </g>
                    </g>
                </g>
            </g>
        </g>
    </g>
</svg>